<svg width="33" height="33" viewBox="0 0 33 33" fill="none" xmlns="http://www.w3.org/2000/svg">
<path d="M0.5 16.5C0.5 7.66344 7.66344 0.5 16.5 0.5C25.3366 0.5 32.5 7.66344 32.5 16.5C32.5 25.3366 25.3366 32.5 16.5 32.5C7.66344 32.5 0.5 25.3366 0.5 16.5Z" fill="#28282C"/>
<path d="M21.9887 14.9554C22.2689 15.1044 22.5033 15.3268 22.6667 15.5989C22.8301 15.8709 22.9165 16.1822 22.9165 16.4995C22.9165 16.8169 22.8301 17.1282 22.6667 17.4002C22.5033 17.6722 22.2689 17.8946 21.9887 18.0436L14.5151 22.1077C13.3117 22.7628 11.8335 21.9111 11.8335 20.5642V12.4354C11.8335 11.0879 13.3117 10.2369 14.5151 10.8908L21.9887 14.9554Z" fill="white"/>
</svg>
